# xmcd CD database file
#
# Track frame offsets:
#	150
#	11937
#	25776
#	46971
#	62136
#	78659
#	90935
#	108103
#	124159
#	140706
#	153696
#	163586
#	177237
#	194243
#	208773
#	221524
#	243241
#
# Disc length: 3427 seconds
#
# Revision: 0
# Processed by: cddbd v1.5.2PL0 Copyright (c) Steve Scherf et al.
# Submitted via: CDex 1.51
#
DISCID=f30d6111
DTITLE=Varios Artistas - Lo Mejor De Toma Uno - CD 2
DYEAR=2012
DGENRE=Country
TTITLE0=The Jayhawks - She Walks In So Many Ways
TTITLE1=Jay Farrar  Will Johnson  Anders Parker  Yim Yames - Old L.A.
TTITLE2=Randy Rogers Band - Interstate
TTITLE3=Eli Young Band - Crazy Girl
TTITLE4=Donna Hughes - Time After Time
TTITLE5=Sierra Hull - I'll Always Be Waiting For You
TTITLE6=Billy Currington - Let Me Down Easy
TTITLE7=Josh Turner - I Wouldn't Be A Man
TTITLE8=Willie Nelson - Drinking Champagne
TTITLE9=Easton Corbin - A Little More Country Than That
TTITLE10=The Cox Family - In The Highways
TTITLE11=The Chieftains  The Civil Wars - Lily Love
TTITLE12=Steve Martin and the Steep Canyon Rangers - You
TTITLE13=John Mellencamp - Don't Forget About Me
TTITLE14=Robert Plant - Central Two-O-Nine
TTITLE15=Elton John  Leon Russell - Gone To Shiloh
TTITLE16=Tony Luz - Toma Uno
EXTD=YEAR: 2012
EXTT0=
EXTT1=
EXTT2=
EXTT3=
EXTT4=
EXTT5=
EXTT6=
EXTT7=
EXTT8=
EXTT9=
EXTT10=
EXTT11=
EXTT12=
EXTT13=
EXTT14=
EXTT15=
EXTT16=
PLAYORDER=
